# xmcd
#
# Track frame offsets: 
#        182
#        12082
#        24660
#        39567
#        58227
#        74327
#        86282
#        101812
#
# Disc length: 1515 seconds
#
# Revision: 0
# Processed by: cddbd v1.5.1PL2 Copyright (c) Steve Scherf et al.
# Submitted via: ExactAudioCopy v0.95b3
#
DISCID=6305e908
DTITLE=Conway Twitty - Gold
DYEAR=1900
DGENRE=Country
TTITLE0=Linda On My Mind
TTITLE1=This Time I've Hurt Her More Than She Loves Me
TTITLE2=I Was The First
TTITLE3=Riverboat Gamblers
TTITLE4=The Rose
TTITLE5=It Turns Me Inside Out
TTITLE6=I Can't See Me Without You
TTITLE7=Southern Comfort
EXTD=
EXTT0=
EXTT1=
EXTT2=
EXTT3=
EXTT4=
EXTT5=
EXTT6=
EXTT7=
PLAYORDER=
